<?xml version="1.0" encoding="utf-8"?>
<!-- Generator: Adobe Illustrator 22.0.1, SVG Export Plug-In . SVG Version: 6.00 Build 0)  -->
<svg version="1.1" id="Layer_1" xmlns="http://www.w3.org/2000/svg" xmlns:xlink="http://www.w3.org/1999/xlink" x="0px" y="0px"
	 viewBox="0 0 1366 332.5" style="enable-background:new 0 0 1366 332.5;" xml:space="preserve">
<style type="text/css">
	.Drop_x0020_Shadow{fill:none;}
	.Outer_x0020_Glow_x0020_5_x0020_pt{fill:none;}
	.Blue_x0020_Neon{fill:none;stroke:#8AACDA;stroke-width:7;stroke-linecap:round;stroke-linejoin:round;}
	.Chrome_x0020_Highlight{fill:url(#SVGID_1_);stroke:#FFFFFF;stroke-width:0.3629;stroke-miterlimit:1;}
	.Jive_GS{fill:#FFDD00;}
	.Alyssa_GS{fill:#A6D0E4;}
	.st0{enable-background:new    ;}
	.st1{clip-path:url(#SVGID_3_);}
	.st2{fill:#318ABC;}
	.st3{clip-path:url(#SVGID_5_);}
	.st4{fill:#0E619F;}
	.st5{fill:#8EB231;}
	.st6{clip-path:url(#SVGID_7_);}
	.st7{clip-path:url(#SVGID_9_);}
</style>
<linearGradient id="SVGID_1_" gradientUnits="userSpaceOnUse" x1="0" y1="-237.5434" x2="6.123234e-17" y2="-238.5434">
	<stop  offset="0" style="stop-color:#656565"/>
	<stop  offset="0.618" style="stop-color:#1B1B1B"/>
	<stop  offset="0.6292" style="stop-color:#545454"/>
	<stop  offset="0.9831" style="stop-color:#3E3E3E"/>
</linearGradient>
<g>
	<g>
		<g class="st0">
			<defs>
				<rect id="SVGID_2_" x="20.7" y="23.2" class="st0" width="416.6" height="285.6"/>
			</defs>
			<clipPath id="SVGID_3_">
				<use xlink:href="#SVGID_2_"  style="overflow:visible;"/>
			</clipPath>
			<g class="st1">
				<g>
					<g>
						<g>
							<path class="st2" d="M199.2,302.5c-0.7,0-1.4-0.1-1.9-0.4c-1.5-1.1-3.5-2.9-3.4-4.3c0-1.5,2.1-3.1,3.6-4.3
								c0.3-0.3,0.8-0.3,1.4-0.3c0.6,0,1.3,0.1,1.8,0.1c7.8,0,15.7,0,23.5,0c11.1,0,22.2,0,33.3,0c0.6,0,1.3-0.1,1.9-0.1
								c0.5,0,1,0.1,1.3,0.3c1.5,1.2,3.5,2.8,3.6,4.3c0,1.5-1.9,3.2-3.4,4.3c-0.5,0.4-1.2,0.4-1.9,0.4c-0.3,0-0.6,0-1,0
								c-0.4,0-0.7,0-1,0c-4.6,0-9.2,0-13.8,0c-4.6,0-9.2,0-13.8,0c-4.7,0-9.3,0-14,0s-9.3,0-14,0c-0.3,0-0.7,0-1,0
								C199.8,302.5,199.5,302.5,199.2,302.5 M232.6,271.4c12.6,0,25.1-0.1,37.6-0.3c0.3,0,0.6,0,0.9,0c7.8,0,13.6,1.8,17.6,8.8
								c1.2,2.1,2.7,4.2,4,6.2c-2.4,0.3-4.9,1-7.3,1c-10,0-19.9,0.1-29.9,0.1c-8.9,0-17.7,0-26.6,0c-19.3,0-38.6,0-57.9,0
								c-0.3,0-0.6,0-0.9,0c-0.2,0-0.3,0-0.5,0c-0.8,0-1.5,0-2.3-0.1c-1.9-0.2-2.8-1.1-1.4-2.8c3.1-3.9,6.2-7.8,9.6-11.4
								c1.1-1.2,3.5-1.5,5.3-1.5c2.1,0,4.3,0,6.4,0c7.6,0,15.3,0,22.9,0.1C217.8,271.3,225.2,271.4,232.6,271.4 M140.9,23.2
								c-20.9,0-41.7,0-62.6,0c-2.1,0-4.1,0.1-6.2,0.2c-4.5,0.2-7.7,2.5-10.4,5.9c-2.5,3.3-2.8,7.1-2.8,11c0,64.9,0,129.9,0.1,194.8
								c0,3.2-0.9,5.7-3,8.2c-11.4,13.4-22.6,27-33.7,40.6c-1.2,1.5-2,4-1.7,5.9c1,6.8,4.6,12,10.6,15.7c4.7,2.9,9.8,3.1,15.1,3.1
								c60.8,0,121.6,0,182.5,0c30.2,0,60.5,0,90.7,0s60.5,0,90.7,0c2.2,0,4.4,0,6.6-0.1c9.8-0.5,18.2-7.5,20.4-16.9
								c0.8-3.3,0.3-6.1-2-8.8c-10.8-12.8-21.4-25.8-32.2-38.5c-2.5-3-3.6-5.9-3.6-9.8c0.2-21.7,0-43.5,0.1-65.2c0-3.3-1-4.7-4-4.7
								c-0.2,0-0.4,0-0.7,0c-1.5,0.1-2.9,0.1-4.4,0.1c-1.1,0-2.1,0-3.2,0c-1.3,0-2.5,0-3.8,0c-4.5,0-4.7,0.3-4.7,4.8
								c0,13.7,0,27.4,0,41.1c0,9.6-6,15.8-15.7,15.8c-89.2,0-178.5,0-267.7,0.1c-7.8,0-15.9-5.6-15.9-16
								c0.3-50.3,0.1-100.5,0.1-150.8c0-3.8-0.1-7.5,0-11.3c0.2-6.4,4.9-11.6,11.2-12.5c2.6-0.4,5.3-0.6,8-0.6c28.4,0,56.8,0,85.2,0
								c18.9,0,37.9,0,56.8,0c0.7,0,1.5,0,2.2,0c0.7,0,1.4,0,2.1-0.1c0.9-0.1,2.3-0.8,2.3-1.3c0.2-3.1,0.6-6.4-0.2-9.3
								c-0.3-1-3.8-1.5-5.8-1.5C208,23.2,174.5,23.2,140.9,23.2"/>
						</g>
					</g>
				</g>
			</g>
		</g>
	</g>
</g>
<g>
	<g>
		<g class="st0">
			<defs>
				<rect id="SVGID_4_" x="424" y="95" class="st0" width="926.1" height="179.1"/>
			</defs>
			<clipPath id="SVGID_5_">
				<use xlink:href="#SVGID_4_"  style="overflow:visible;"/>
			</clipPath>
			<g class="st3">
				<g>
					<g>
						<g>
							<path class="st4" d="M574.6,105h-38v91.7c0,15.4-3.2,26.6-9.5,33.9c-6.3,7.2-15.5,10.8-27.6,10.8
								c-24.7,0-37.1-14.9-37.1-44.7V105H424v93.1c0,24.4,6.6,43.2,19.8,56.3c13.2,13.1,31.7,19.7,55.5,19.7
								c23.8,0,42.3-6.6,55.5-19.7c13.2-13.1,19.8-31.9,19.8-56.3V105"/>
							<path class="st4" d="M673.2,242.8c-9.5,0-17.3-3.2-23.5-9.6c-6.2-6.4-9.3-15-9.3-25.8c0-10.8,3.1-19.4,9.3-25.8
								c6.2-6.4,14-9.6,23.5-9.6s17.3,3.2,23.4,9.6c6.1,6.4,9.2,15,9.2,25.8c0,10.8-3.1,19.4-9.2,25.8
								C690.5,239.6,682.7,242.8,673.2,242.8 M673.2,141.6c-13.5,0-25.5,2.8-36.2,8.4c-10.7,5.6-19.1,13.4-25.1,23.4
								c-6,10-9,21.3-9,34c0,12.7,3,24,9,34c6,10,14.4,17.8,25.1,23.4c10.7,5.6,22.8,8.4,36.2,8.4s25.5-2.8,36.1-8.4
								c10.6-5.6,18.9-13.4,24.9-23.4c6-10,9-21.3,9-34c0-12.7-3-24-9-34c-6-10-14.3-17.8-24.9-23.4
								C698.7,144.4,686.7,141.6,673.2,141.6"/>
							<polyline class="st4" points="807.4,95 770.4,95 770.4,271.3 807.4,271.3 807.4,95 							"/>
							<path class="st4" d="M871.6,196.2c1.3-8.2,4.8-14.7,10.5-19.5c5.7-4.8,12.7-7.1,21.1-7.1c8.2,0,15.2,2.4,20.9,7.2
								c5.7,4.8,9.2,11.3,10.5,19.4H871.6 M902.9,141.6c-12.8,0-24.4,2.8-34.8,8.4c-10.4,5.6-18.5,13.5-24.5,23.5
								c-5.9,10.1-8.9,21.3-8.9,33.8c0,12.7,3,24,9,34c6,10,14.6,17.8,25.7,23.4c11.1,5.6,23.8,8.4,38.3,8.4
								c23.1,0,40.7-6.9,52.7-20.7l-19.7-21.4c-4.4,4.3-9.2,7.4-14.4,9.4c-5.1,2-11.1,3-17.7,3c-9.7,0-17.7-2.3-24.2-6.9
								c-6.5-4.6-10.6-10.8-12.4-18.8h96.7c0.5-6.2,0.7-9.5,0.7-10c0-13.3-2.9-25-8.7-35c-5.8-10.1-13.7-17.8-23.9-23.2
								C926.8,144.3,915.4,141.6,902.9,141.6"/>
							<polyline class="st4" points="1123.4,143.5 1087.8,143.5 1051.2,230.5 1015.8,143.5 977.5,143.5 1031.2,271.3 1069.5,271.3 
								1123.4,143.5 							"/>
							<polyline class="st5" points="1182.1,105 1143.6,105 1143.6,271.3 1182.1,271.3 1182.1,105 							"/>
							<polyline class="st5" points="1350.1,105 1205.1,105 1205.1,136.4 1258.3,136.4 1258.3,271.3 1296.8,271.3 1296.8,136.4 
								1350.1,136.4 1350.1,105 							"/>
						</g>
					</g>
				</g>
			</g>
		</g>
	</g>
</g>
<g>
	<g>
		<g class="st0">
			<defs>
				<rect id="SVGID_6_" x="92" y="58.3" class="st0" width="98.3" height="67.4"/>
			</defs>
			<clipPath id="SVGID_7_">
				<use xlink:href="#SVGID_6_"  style="overflow:visible;"/>
			</clipPath>
			<g class="st6">
				<g>
					<g>
						<g>
							<path class="st2" d="M134.2,124.2c-0.2,0-0.3,0-0.5-0.1c-0.4-0.3-0.8-0.7-0.8-1c0-0.4,0.5-0.7,0.9-1c0.1-0.1,0.2-0.1,0.3-0.1
								c0.1,0,0.3,0,0.4,0c4.5,0,8.9,0,13.4,0c0.1,0,0.3,0,0.4,0c0.1,0,0.2,0,0.3,0.1c0.4,0.3,0.8,0.7,0.8,1c0,0.3-0.5,0.8-0.8,1
								c-0.1,0.1-0.3,0.1-0.5,0.1c-0.2,0-0.3,0-0.5,0c-2.2,0-4.4,0-6.5,0c-2.2,0-4.4,0-6.6,0C134.5,124.2,134.3,124.2,134.2,124.2
								 M141.7,116.9c3.1,0,6.1,0,9.2-0.1c0.1,0,0.2,0,0.2,0c1.8,0,3.2,0.4,4.1,2.1c0.3,0.5,0.6,1,0.9,1.5c-0.6,0.1-1.1,0.2-1.7,0.2
								c-2.2,0-4.4,0-6.7,0s-4.4,0-6.7,0c-4.6,0-9.1,0-13.7,0c-0.1,0-0.2,0-0.3,0c-0.2,0-0.3,0-0.5,0c-0.4,0-0.7-0.3-0.3-0.7
								c0.7-0.9,1.5-1.9,2.3-2.7c0.3-0.3,0.8-0.4,1.3-0.4c2.2,0,4.4,0,6.6,0C138.2,116.9,140,116.9,141.7,116.9 M105.6,58.3
								c-0.5,0-1,0-1.5,0c-1.1,0-1.8,0.6-2.4,1.4c-0.6,0.8-0.7,1.7-0.7,2.6c0,15.3,0,30.7,0,46c0,0.8-0.2,1.3-0.7,1.9
								c-2.7,3.2-5.3,6.4-7.9,9.6c-0.3,0.4-0.5,1-0.4,1.4c0.2,1.6,1.1,2.8,2.5,3.7c1.1,0.7,2.3,0.7,3.6,0.7c14.4,0,28.7,0,43.1,0
								c14.3,0,28.5,0,42.8,0c0.5,0,1,0,1.5,0c2.3-0.1,4.3-1.8,4.8-4c0.2-0.8,0.1-1.4-0.5-2.1c-2.5-3-5-6.1-7.6-9.1
								c-0.6-0.7-0.8-1.4-0.8-2.3c0-5.1,0-10.3,0-15.4c0-0.8-0.2-1.1-0.9-1.1c-0.1,0-0.1,0-0.2,0c-0.3,0-0.6,0-0.9,0
								c-0.2,0-0.5,0-0.7,0c-0.3,0-0.7,0-1,0c-1.1,0-1.1,0.1-1.1,1.1c0,3.2,0,6.5,0,9.7c0,2.3-1.4,3.7-3.7,3.7
								c-21.1,0-42.1,0-63.2,0c-1.9,0-3.8-1.3-3.7-3.8c0.1-11.9,0-23.7,0-35.6c0-0.9,0-1.8,0-2.7c0.1-1.5,1.2-2.7,2.6-2.9
								c0.6-0.1,1.3-0.2,1.9-0.2c3.7,0,7.4,0,11.2,0c7.4,0,14.9,0,22.3,0c0.2,0,0.3,0,0.5,0s0.3,0,0.5,0c0.2,0,0.5-0.2,0.5-0.3
								c0-0.7,0.1-1.5-0.1-2.2c-0.1-0.2-0.9-0.3-1.4-0.3C131.3,58.3,118.5,58.3,105.6,58.3"/>
						</g>
					</g>
				</g>
			</g>
		</g>
	</g>
</g>
<g>
	<g>
		<g class="st0">
			<defs>
				<rect id="SVGID_8_" x="187.2" y="75.3" class="st0" width="218.6" height="42.3"/>
			</defs>
			<clipPath id="SVGID_9_">
				<use xlink:href="#SVGID_8_"  style="overflow:visible;"/>
			</clipPath>
			<g class="st7">
				<g>
					<g>
						<g>
							<path class="st4" d="M222.8,77.6h-9v21.6c0,3.6-0.7,6.3-2.2,8c-1.5,1.7-3.7,2.6-6.5,2.6c-5.8,0-8.7-3.5-8.7-10.5V77.6h-9.1
								v22c0,5.8,1.6,10.2,4.7,13.3c3.1,3.1,7.5,4.7,13.1,4.7s10-1.5,13.1-4.7c3.1-3.1,4.7-7.5,4.7-13.3V77.6"/>
							<path class="st4" d="M246,110.2c-2.3,0-4.1-0.8-5.6-2.3c-1.5-1.5-2.2-3.5-2.2-6.1c0-2.5,0.7-4.6,2.2-6.1
								c1.5-1.5,3.3-2.3,5.6-2.3c2.2,0,4.1,0.8,5.5,2.3s2.2,3.5,2.2,6.1c0,2.5-0.7,4.6-2.2,6.1S248.3,110.2,246,110.2 M246,86.3
								c-3.2,0-6,0.7-8.6,2c-2.5,1.3-4.5,3.2-5.9,5.5c-1.4,2.3-2.1,5-2.1,8c0,3,0.7,5.7,2.1,8c1.4,2.3,3.4,4.2,5.9,5.5
								c2.5,1.3,5.4,2,8.6,2s6-0.7,8.5-2c2.5-1.3,4.5-3.2,5.9-5.5c1.4-2.4,2.1-5,2.1-8c0-3-0.7-5.7-2.1-8c-1.4-2.4-3.4-4.2-5.9-5.5
								C252,86.9,249.2,86.3,246,86.3"/>
							<polyline class="st4" points="277.7,75.3 269,75.3 269,116.9 277.7,116.9 277.7,75.3 							"/>
							<path class="st4" d="M292.9,99.2c0.3-1.9,1.1-3.5,2.5-4.6c1.3-1.1,3-1.7,5-1.7c1.9,0,3.6,0.6,4.9,1.7
								c1.3,1.1,2.2,2.7,2.5,4.6H292.9 M300.2,86.3c-3,0-5.8,0.7-8.2,2c-2.4,1.3-4.4,3.2-5.8,5.6c-1.4,2.4-2.1,5-2.1,8
								c0,3,0.7,5.7,2.1,8c1.4,2.3,3.4,4.2,6.1,5.5c2.6,1.3,5.6,2,9,2c5.5,0,9.6-1.6,12.4-4.9l-4.7-5c-1.1,1-2.2,1.7-3.4,2.2
								c-1.2,0.5-2.6,0.7-4.2,0.7c-2.3,0-4.2-0.5-5.7-1.6c-1.5-1.1-2.5-2.6-2.9-4.4h22.8c0.1-1.5,0.2-2.2,0.2-2.4
								c0-3.1-0.7-5.9-2.1-8.3c-1.4-2.4-3.2-4.2-5.6-5.5C305.9,86.9,303.2,86.3,300.2,86.3"/>
							<polyline class="st4" points="352.3,86.7 343.9,86.7 335.2,107.2 326.9,86.7 317.9,86.7 330.5,116.9 339.6,116.9 352.3,86.7 
															"/>
							<polyline class="st5" points="366.1,77.6 357,77.6 357,116.9 366.1,116.9 366.1,77.6 							"/>
							<polyline class="st5" points="405.8,77.6 371.6,77.6 371.6,85 384.1,85 384.1,116.9 393.2,116.9 393.2,85 405.8,85 
								405.8,77.6 							"/>
						</g>
					</g>
				</g>
			</g>
		</g>
	</g>
</g>
</svg>
